<svg xmlns="http://www.w3.org/2000/svg" viewBox="0 0 513.86 88.00" width="514" height="88" xmlns:c2pa="http://c2pa.org/manifest"><metadata><c2pa:manifest>AAAWgmp1bWIAAAAeanVtZGMycGEAEQAQgAAAqgA4m3EDYzJwYQAAABZcanVtYgAAAEdqdW1kYzJtYQARABCAAACqADibcQN1cm46YzJwYTozMTA5ZjE0My05N2JkLTQ4YzQtYTRiOC1mNzdmZmY2YTZiNjQAAAADl2p1bWIAAAApanVtZGMyYXMAEQAQgAAAqgA4m3EDYzJwYS5hc3NlcnRpb25zAAAAALxqdW1iAAAARGp1bWRjYm9yABEAEIAAAKoAOJtxE2MycGEuaW5ncmVkaWVudC52MwAAAAAYYzJzaBwFPqVyVIYA2pyzIv96opgAAABwY2JvcqNpZGM6Zm9ybWF0bWltYWdlL3N2Zyt4bWxqaW5zdGFuY2VJRHgseG1wOmlpZDo5OTk5ODkxNC05ZTRhLTRmMWMtYjAyNS1mM2IxZWE3NzlkZmVscmVsYXRpb25zaGlwaHBhcmVudE9mAAAB4mp1bWIAAABBanVtZGNib3IAEQAQgAAAqgA4m3ETYzJwYS5hY3Rpb25zLnYyAAAAABhjMnNon5Tq3w4HTCSFZ524Dv4PxwAAAZljYm9yomdhY3Rpb25zgqJmYWN0aW9ua2MycGEub3BlbmVkanBhcmFtZXRlcnOha2luZ3JlZGllbnRzgaJjdXJseC1zZWxmI2p1bWJmPWMycGEuYXNzZXJ0aW9ucy9jMnBhLmluZ3JlZGllbnQudjNkaGFzaFggpMZ74lAFEzjMMEN9dpxGCY/abNMZO0yFnieo6mxHCrykZmFjdGlvbngdY29tLmFudGhyb3BpYy5jbGF1ZGUucHJvdmlkZWRqcGFyYW1ldGVyc6F4H2NvbS5hbnRocm9waWMub3JpZ2luLWNvbmZpZGVuY2VndW5rbm93bmtkZXNjcmlwdGlvbnhmQ2xhdWRlIHByb3ZpZGVkIHRoaXMgZmlsZSBhdCB0aGUgcmVxdWVzdCBvZiBhIHVzZXIgYW5kIG1heSBoYXZlIGNyZWF0ZWQgb3IgbW9kaWZpZWQgdGhlIGZpbGUgY29udGVudHMubXNvZnR3YXJlQWdlbnShZG5hbWVmQ2xhdWRlcmFsbEFjdGlvbnNJbmNsdWRlZPUAAADIanVtYgAAAEBqdW1kY2JvcgARABCAAACqADibcRNjMnBhLmhhc2guZGF0YQAAAAAYYzJzaI1vLZVNxQ78XfeSh8AYFGsAAACAY2JvcqVjYWxnZnNoYTI1NmNwYWRNAAAAAAAAAAAAAAAAAGRoYXNoWCCtm/Zsc9R9IGwRuP5cnNPKgXT/3mRXJzN7STpBxmvuDGRuYW1lbmp1bWJmIG1hbmlmZXN0amV4Y2x1c2lvbnOBomVzdGFydBiaZmxlbmd0aBkeBAAAAj5qdW1iAAAAJ2p1bWRjMmNsABEAEIAAAKoAOJtxA2MycGEuY2xhaW0udjIAAAACD2Nib3KlY2FsZ2ZzaGEyNTZpc2lnbmF0dXJleE1zZWxmI2p1bWJmPS9jMnBhL3VybjpjMnBhOjMxMDlmMTQzLTk3YmQtNDhjNC1hNGI4LWY3N2ZmZjZhNmI2NC9jMnBhLnNpZ25hdHVyZWppbnN0YW5jZUlEeCx4bXA6aWlkOjI5ZTdmOGQ1LWU0MjktNDg5YS04ZThlLWRmMGIxZWE4MDZmMXJjcmVhdGVkX2Fzc2VydGlvbnODomN1cmx4LXNlbGYjanVtYmY9YzJwYS5hc3NlcnRpb25zL2MycGEuaW5ncmVkaWVudC52M2RoYXNoWCCkxnviUAUTOMwwQ312nEYJj9ps0xk7TIWeJ6jqbEcKvKJjdXJseCpzZWxmI2p1bWJmPWMycGEuYXNzZXJ0aW9ucy9jMnBhLmFjdGlvbnMudjJkaGFzaFggOPEBpW2w1FsxeaYrj1qw8kT52C0zSfJik+G87saiNLqiY3VybHgpc2VsZiNqdW1iZj1jMnBhLmFzc2VydGlvbnMvYzJwYS5oYXNoLmRhdGFkaGFzaFggmnEgz/iUJU8hqFzTUkg4emXgj6+Jz6j+3tAnrGQ4EBd0Y2xhaW1fZ2VuZXJhdG9yX2luZm+jZG5hbWVvQW50aHJvcGljIEZpbGVzZ3ZlcnNpb25lMS4wLjBrc3BlY1ZlcnNpb25lMi40LjAAABA4anVtYgAAAChqdW1kYzJjcwARABCAAACqADibcQNjMnBhLnNpZ25hdHVyZQAAABAIY2JvctKEWQISogEmGCFZAgowggIGMIIBjaADAgECAhRA5aAK7sI50L64g/oGQgU9Z1UTADAKBggqhkjOPQQDAzBJMRcwFQYDVQQKEw5BbnRocm9waWMsIFBCQzEuMCwGA1UEAxMlQW50aHJvcGljIENvbnRlbnQgQ3JlZGVudGlhbHMgUm9vdCBDQTAeFw0yNjA4MDcxODQzNTZaFw0yODA4MDYxOTQzNTZaMEQxFzAVBgNVBAoTDkFudGhyb3BpYywgUEJDMSkwJwYDVQQDEyBBbnRocm9waWMgQ2xhdWRlIENvbnRlbnQgU2lnbmluZzBZMBMGByqGSM49AgEGCCqGSM49AwEHA0IABJh6CmvLUBgFFNU0vUKlOVtE6djd17L5SuwX0LemFisBM3dkd/3cyjxFA3Qo5S46fX0/ihY0VZ7mfb9KF703t5OjWDBWMA4GA1UdDwEB/wQEAwIHgDAVBgNVHSUEDjAMBgorBgEEAYPoXgIBMAwGA1UdEwEB/wQCMAAwHwYDVR0jBBgwFoAUzlHiBIFOZFsj+OPEz5o+nMHXXMIwCgYIKoZIzj0EAwMDZwAwZAIwMXMdFJ4BetLLVY7ORuE9noqbbAZOZn/aArXyTwFAZfKrPzxF2vPoJNf1+UCdg1XGAjBwX1zd9WGqYkqmL5SFqw1QySjr1zJfpJM9+1rdDwSPLMOPOjKuiXjoU/pUUeG9RwmhY3BhZFkNngAAAAAAAAAAAAAAAAAAAAAAAAAAAAAAAAAAAAAAAAAAAAAAAAAAAAAAAAAAAAAAAAAAAAAAAAAAAAAAAAAAAAAAAAAAAAAAAAAAAAAAAAAAAAAAAAAAAAAAAAAAAAAAAAAAAAAAAAAAAAAAAAAAAAAAAAAAAAAAAAAAAAAAAAAAAAAAAAAAAAAAAAAAAAAAAAAAAAAAAAAAAAAAAAAAAAAAAAAAAAAAAAAAAAAAAAAAAAAAAAAAAAAAAAAAAAAAAAAAAAAAAAAAAAAAAAAAAAAAAAAAAAAAAAAAAAAAAAAAAAAAAAAAAAAAAAAAAAAAAAAAAAAAAAAAAAAAAAAAAAAAAAAAAAAAAAAAAAAAAAAAAAAAAAAAAAAAAAAAAAAAAAAAAAAAAAAAAAAAAAAAAAAAAAAAAAAAAAAAAAAAAAAAAAAAAAAAAAAAAAAAAAAAAAAAAAAAAAAAAAAAAAAAAAAAAAAAAAAAAAAAAAAAAAAAAAAAAAAAAAAAAAAAAAAAAAAAAAAAAAAAAAAAAAAAAAAAAAAAAAAAAAAAAAAAAAAAAAAAAAAAAAAAAAAAAAAAAAAAAAAAAAAAAAAAAAAAAAAAAAAAAAAAAAAAAAAAAAAAAAAAAAAAAAAAAAAAAAAAAAAAAAAAAAAAAAAAAAAAAAAAAAAAAAAAAAAAAAAAAAAAAAAAAAAAAAAAAAAAAAAAAAAAAAAAAAAAAAAAAAAAAAAAAAAAAAAAAAAAAAAAAAAAAAAAAAAAAAAAAAAAAAAAAAAAAAAAAAAAAAAAAAAAAAAAAAAAAAAAAAAAAAAAAAAAAAAAAAAAAAAAAAAAAAAAAAAAAAAAAAAAAAAAAAAAAAAAAAAAAAAAAAAAAAAAAAAAAAAAAAAAAAAAAAAAAAAAAAAAAAAAAAAAAAAAAAAAAAAAAAAAAAAAAAAAAAAAAAAAAAAAAAAAAAAAAAAAAAAAAAAAAAAAAAAAAAAAAAAAAAAAAAAAAAAAAAAAAAAAAAAAAAAAAAAAAAAAAAAAAAAAAAAAAAAAAAAAAAAAAAAAAAAAAAAAAAAAAAAAAAAAAAAAAAAAAAAAAAAAAAAAAAAAAAAAAAAAAAAAAAAAAAAAAAAAAAAAAAAAAAAAAAAAAAAAAAAAAAAAAAAAAAAAAAAAAAAAAAAAAAAAAAAAAAAAAAAAAAAAAAAAAAAAAAAAAAAAAAAAAAAAAAAAAAAAAAAAAAAAAAAAAAAAAAAAAAAAAAAAAAAAAAAAAAAAAAAAAAAAAAAAAAAAAAAAAAAAAAAAAAAAAAAAAAAAAAAAAAAAAAAAAAAAAAAAAAAAAAAAAAAAAAAAAAAAAAAAAAAAAAAAAAAAAAAAAAAAAAAAAAAAAAAAAAAAAAAAAAAAAAAAAAAAAAAAAAAAAAAAAAAAAAAAAAAAAAAAAAAAAAAAAAAAAAAAAAAAAAAAAAAAAAAAAAAAAAAAAAAAAAAAAAAAAAAAAAAAAAAAAAAAAAAAAAAAAAAAAAAAAAAAAAAAAAAAAAAAAAAAAAAAAAAAAAAAAAAAAAAAAAAAAAAAAAAAAAAAAAAAAAAAAAAAAAAAAAAAAAAAAAAAAAAAAAAAAAAAAAAAAAAAAAAAAAAAAAAAAAAAAAAAAAAAAAAAAAAAAAAAAAAAAAAAAAAAAAAAAAAAAAAAAAAAAAAAAAAAAAAAAAAAAAAAAAAAAAAAAAAAAAAAAAAAAAAAAAAAAAAAAAAAAAAAAAAAAAAAAAAAAAAAAAAAAAAAAAAAAAAAAAAAAAAAAAAAAAAAAAAAAAAAAAAAAAAAAAAAAAAAAAAAAAAAAAAAAAAAAAAAAAAAAAAAAAAAAAAAAAAAAAAAAAAAAAAAAAAAAAAAAAAAAAAAAAAAAAAAAAAAAAAAAAAAAAAAAAAAAAAAAAAAAAAAAAAAAAAAAAAAAAAAAAAAAAAAAAAAAAAAAAAAAAAAAAAAAAAAAAAAAAAAAAAAAAAAAAAAAAAAAAAAAAAAAAAAAAAAAAAAAAAAAAAAAAAAAAAAAAAAAAAAAAAAAAAAAAAAAAAAAAAAAAAAAAAAAAAAAAAAAAAAAAAAAAAAAAAAAAAAAAAAAAAAAAAAAAAAAAAAAAAAAAAAAAAAAAAAAAAAAAAAAAAAAAAAAAAAAAAAAAAAAAAAAAAAAAAAAAAAAAAAAAAAAAAAAAAAAAAAAAAAAAAAAAAAAAAAAAAAAAAAAAAAAAAAAAAAAAAAAAAAAAAAAAAAAAAAAAAAAAAAAAAAAAAAAAAAAAAAAAAAAAAAAAAAAAAAAAAAAAAAAAAAAAAAAAAAAAAAAAAAAAAAAAAAAAAAAAAAAAAAAAAAAAAAAAAAAAAAAAAAAAAAAAAAAAAAAAAAAAAAAAAAAAAAAAAAAAAAAAAAAAAAAAAAAAAAAAAAAAAAAAAAAAAAAAAAAAAAAAAAAAAAAAAAAAAAAAAAAAAAAAAAAAAAAAAAAAAAAAAAAAAAAAAAAAAAAAAAAAAAAAAAAAAAAAAAAAAAAAAAAAAAAAAAAAAAAAAAAAAAAAAAAAAAAAAAAAAAAAAAAAAAAAAAAAAAAAAAAAAAAAAAAAAAAAAAAAAAAAAAAAAAAAAAAAAAAAAAAAAAAAAAAAAAAAAAAAAAAAAAAAAAAAAAAAAAAAAAAAAAAAAAAAAAAAAAAAAAAAAAAAAAAAAAAAAAAAAAAAAAAAAAAAAAAAAAAAAAAAAAAAAAAAAAAAAAAAAAAAAAAAAAAAAAAAAAAAAAAAAAAAAAAAAAAAAAAAAAAAAAAAAAAAAAAAAAAAAAAAAAAAAAAAAAAAAAAAAAAAAAAAAAAAAAAAAAAAAAAAAAAAAAAAAAAAAAAAAAAAAAAAAAAAAAAAAAAAAAAAAAAAAAAAAAAAAAAAAAAAAAAAAAAAAAAAAAAAAAAAAAAAAAAAAAAAAAAAAAAAAAAAAAAAAAAAAAAAAAAAAAAAAAAAAAAAAAAAAAAAAAAAAAAAAAAAAAAAAAAAAAAAAAAAAAAAAAAAAAAAAAAAAAAAAAAAAAAAAAAAAAAAAAAAAAAAAAAAAAAAAAAAAAAAAAAAAAAAAAAAAAAAAAAAAAAAAAAAAAAAAAAAAAAAAAAAAAAAAAAAAAAAAAAAAAAAAAAAAAAAAAAAAAAAAAAAAAAAAAAAAAAAAAAAAAAAAAAAAAAAAAAAAAAAAAAAAAAAAAAAAAAAAAAAAAAAAAAAAAAAAAAAAAAAAAAAAAAAAAAAAAAAAAAAAAAAAAAAAAAAAAAAAAAAAAAAAAAAAAAAAAAAAAAAAAAAAAAAAAAAAAAAAAAAAAAAAAAAAAAAAAAAAAAAAAAAAAAAAAAAAAAAAAAAAAAAAAAAAAAAAAAAAAAAAAAAAAAAAAAAAAAAAAAAAAAAAAAAAAAAAAAAAAAAAAAAAAAAAAAAAAAAAAAAAAAAAAAAAAAAAAAAAAAAAAAAAAAAAAAAAAAAAAAAAAAAAAAAAAAAAAAAAAAAAAAAAAAAAAAAAAAAAAAAAAAAAAAAAAAAAAAAAAAAAAAAAAAAAAAAAAAAAAAAAAAAAAAAAAAAAAAAAAAAAAAAAAAAAAAAAAAAAAAAAAAAAAAAAAAAAAAAAAAAAAAAAAAAAAAAAAAAAAAAAAAAAAAAAAAAAAAAAAAAAAAAAAAAAAAAAAAAAAAAAAAAAAAAAAAAAAAAAAAAAAAAAAAAAAAAAAAAAAAAAAAAAAAAAAAAAAAAAAAAAAAAAAAAAAAAAAAAAAAAAAAAAAAAAAAAAAAAAAAAAAAAAAAAAAAAAAAAAAAAAAAAAAAAAAAAAAAAAAAAAAAAAAAAAAAAAAAAAAAAAAAAAAAAAAAAAAAAAAAAAAAAAAAAAAAAAAAAAAAAAAAAAAAAAAAAAAAAAAAAAAAAAAAAAAAAAAAAAAAAAAAAAAAAAAAAAAAAAAAAAAAAAAAAAAAAAAAAAAAAAAAAAAAAAAAAAAAAAAAAAAAAAAAAAAAAAAAAAAAAAAAAAAAAAAAAAAAAAAAAAAAAAAAAAAAAAAAAAAAAAAAAAAAAAAAAAAAAAAAAAAAAAAAAAAAAAAAAAAAAAAAAAAAAAAAAAAAAAAAAAAAAAAAAAAAAAAAAAAAAAAAAAAAAAAAAAAAAAAAAAAAAAAAAAAAAAAAAAAAAAAAAAAAAAAAAAAAAAAAAAAAAAAAAAAAAAAAAAAAAAAAAAAAAAAAAAAAAAAAAAAAAAAAAAAAAAAAAAAAAAAAAAAAAAAAAAAAAAAAAAAAAAAAAAAAAAAAAAAAAAAAAAAAAAAAAAAAAAAAAAAAAAAAAAAAAAAAAAAAAAAAAAAAAAAAAAAAAAAAAAAAAAAAAAAAAAAAAAAAAAAAAAAAAAAAAAAAAAAAAAAAAAAAAAAAAAAAAAAAAAAAAAAAAAAAAAAAAAAAAAAAAAAAAAAAAAAAAAAAAAAAAAAAAAAAAAAAAAAAAAAAAAAAAAAAAAAAAAAAAAAAAAAAAAAAAAAAAAAAAAAAAAAAAAAAAAAAAAAAAAAAAAAAAAAAAAAAAAAAAAAAAAAAAAAAAAAAAAAAAAAAAAAAAAAAAAAAAAAAAAAAAAAAAAAAAAAAAAAAAAAAAAAAAAAAAAAAAAAAAAAAAAAAAAAAAAAAAAAAAAAAAAAAAAAAAAAAAAAAAAAAAAAAAAAAAAAAAAAAPZYQHnVVvLO9nQIXDlHQ8vLNQ10aaQUs023PnZ3sIZcvEltJn8uduQNByAH3z07q3Dt52pAqBuT0SI3CRCCsInFHWA=</c2pa:manifest></metadata><title>The Upper Room</title><g transform="translate(-8.00 -8.00) scale(0.8000)"><path fill-rule="evenodd" fill="#1B211E" d="M10 120V50A40 40 0 0 1 90 50V120Z M22 120V52A28 28 0 0 1 78 52V120Z"/><path fill="#1B211E" d="M20 120V106H36V92H50V78H64V64H80V120Z"/><path fill="#1B211E" d="M43 50V41A7 7 0 0 1 57 41V50Z"/></g><path fill="#1B211E" d="M100.62 63.8V24.199999999999996H110.34V63.8ZM90.84 32.48V24.199999999999996H120.12V32.48ZM121.91999999999999 63.8V47.06V21.799999999999997H131.64V29.72Q131.64 30.979999999999997 131.49 33.05Q131.34 35.12 131.07 37.459999999999994Q130.79999999999998 39.8 130.52999999999997 41.93Q130.26 44.06 130.07999999999998 45.5H130.62Q131.16 40.519999999999996 132.48 37.37Q133.79999999999998 34.22 136.07999999999998 32.75Q138.35999999999999 31.28 141.6 31.28Q146.7 31.28 149.16 34.91Q151.62 38.54 151.62 45.86V63.8H141.89999999999998V46.28Q141.89999999999998 42.92 141.0 41.36Q140.1 39.8 138.06 39.8Q136.26 39.8 134.82 41.15Q133.38 42.5 132.51 45.44Q131.64 48.379999999999995 131.64 53.059999999999995V63.8ZM169.5 64.64Q165.0 64.64 161.97 63.349999999999994Q158.94 62.059999999999995 157.07999999999998 59.809999999999995Q155.22 57.559999999999995 154.41 54.67999999999999Q153.6 51.8 153.6 48.62Q153.6 45.2 154.47 42.08Q155.34 38.959999999999994 157.17000000000002 36.529999999999994Q159.0 34.099999999999994 161.91 32.69Q164.82 31.28 168.9 31.28Q172.98 31.28 175.89 32.69Q178.8 34.099999999999994 180.54000000000002 36.62Q182.28 39.14 182.79000000000002 42.44Q183.3 45.739999999999995 182.64 49.58L159.66 49.94V44.66L175.2 44.36L173.94 47.42Q174.3 44.66 173.85000000000002 42.769999999999996Q173.4 40.879999999999995 172.2 39.89Q171.0 38.9 168.9 38.9Q166.68 38.9 165.36 40.04Q164.04 41.18 163.5 43.25Q162.96 45.31999999999999 162.96 48.14Q162.96 53.0 164.57999999999998 55.22Q166.2 57.44 169.56 57.44Q171.0 57.44 171.96 57.08Q172.92000000000002 56.72 173.52 56.03Q174.12 55.339999999999996 174.36 54.349999999999994Q174.6 53.36 174.54 52.099999999999994L183.42000000000002 52.58Q183.6 54.559999999999995 183.03 56.66Q182.46 58.76 180.9 60.56Q179.34 62.36 176.55 63.5Q173.76 64.64 169.5 64.64ZM213.06 64.64Q209.64 64.64 206.94 63.86Q204.24 63.08 202.29000000000002 61.64Q200.34 60.199999999999996 199.05 58.19Q197.76 56.18 197.13 53.66Q196.5 51.14 196.5 48.199999999999996V24.199999999999996H206.22V47.72Q206.22 50.78 207.12 52.61Q208.02 54.44 209.55 55.22Q211.08 56.0 213.06 56.0Q215.1 56.0 216.63 55.22Q218.16 54.44 219.06 52.64Q219.96 50.839999999999996 219.96 47.72V24.199999999999996H229.68V48.199999999999996Q229.68 56.0 225.48000000000002 60.32Q221.28 64.64 213.06 64.64ZM232.73999999999998 72.67999999999999V43.4V32.12H241.26V41.9H241.67999999999998Q242.33999999999997 38.36 243.65999999999997 35.989999999999995Q244.98 33.62 247.04999999999998 32.45Q249.11999999999998 31.28 252.05999999999997 31.28Q255.77999999999997 31.28 258.39 33.17Q261.0 35.06 262.35 38.75Q263.7 42.44 263.7 47.839999999999996Q263.7 53.66 262.16999999999996 57.379999999999995Q260.64 61.099999999999994 258.0 62.87Q255.35999999999999 64.64 251.99999999999997 64.64Q249.29999999999998 64.64 247.23 63.5Q245.16 62.36 243.81 59.989999999999995Q242.45999999999998 57.62 241.92 54.019999999999996H241.38Q241.67999999999998 55.76 241.92 57.65Q242.16 59.54 242.31 61.37Q242.45999999999998 63.199999999999996 242.45999999999998 64.88V72.67999999999999ZM248.33999999999997 56.66Q250.26 56.66 251.48999999999998 55.459999999999994Q252.71999999999997 54.26 253.28999999999996 52.31Q253.85999999999999 50.36 253.85999999999999 48.199999999999996Q253.85999999999999 45.8 253.23 43.849999999999994Q252.6 41.9 251.37 40.730000000000004Q250.14 39.56 248.33999999999997 39.56Q247.2 39.56 246.12 40.07Q245.04 40.58 244.2 41.629999999999995Q243.35999999999999 42.68 242.84999999999997 44.3Q242.33999999999997 45.92 242.33999999999997 48.199999999999996V48.559999999999995Q242.33999999999997 50.36 242.7 51.68Q243.05999999999997 53.0 243.65999999999997 53.96Q244.26 54.92 245.04 55.519999999999996Q245.82 56.12 246.65999999999997 56.39Q247.49999999999997 56.66 248.33999999999997 56.66ZM266.1 72.67999999999999V43.4V32.12H274.62V41.9H275.04Q275.7 38.36 277.02 35.989999999999995Q278.34 33.62 280.40999999999997 32.45Q282.48 31.28 285.42 31.28Q289.14 31.28 291.75 33.17Q294.36 35.06 295.71000000000004 38.75Q297.06 42.44 297.06 47.839999999999996Q297.06 53.66 295.53 57.379999999999995Q294.0 61.099999999999994 291.36 62.87Q288.71999999999997 64.64 285.36 64.64Q282.65999999999997 64.64 280.59 63.5Q278.52 62.36 277.16999999999996 59.989999999999995Q275.82 57.62 275.28 54.019999999999996H274.74Q275.04 55.76 275.28 57.65Q275.52 59.54 275.66999999999996 61.37Q275.82 63.199999999999996 275.82 64.88V72.67999999999999ZM281.7 56.66Q283.62 56.66 284.85 55.459999999999994Q286.08 54.26 286.65 52.31Q287.21999999999997 50.36 287.21999999999997 48.199999999999996Q287.21999999999997 45.8 286.59 43.849999999999994Q285.96 41.9 284.73 40.730000000000004Q283.5 39.56 281.7 39.56Q280.56 39.56 279.48 40.07Q278.4 40.58 277.55999999999995 41.629999999999995Q276.71999999999997 42.68 276.21 44.3Q275.7 45.92 275.7 48.199999999999996V48.559999999999995Q275.7 50.36 276.06 51.68Q276.42 53.0 277.02 53.96Q277.62 54.92 278.4 55.519999999999996Q279.18 56.12 280.02 56.39Q280.86 56.66 281.7 56.66ZM314.4 64.64Q309.9 64.64 306.87 63.349999999999994Q303.84 62.059999999999995 301.97999999999996 59.809999999999995Q300.11999999999995 57.559999999999995 299.30999999999995 54.67999999999999Q298.49999999999994 51.8 298.49999999999994 48.62Q298.49999999999994 45.2 299.36999999999995 42.08Q300.23999999999995 38.959999999999994 302.06999999999994 36.529999999999994Q303.9 34.099999999999994 306.80999999999995 32.69Q309.71999999999997 31.28 313.79999999999995 31.28Q317.87999999999994 31.28 320.78999999999996 32.69Q323.69999999999993 34.099999999999994 325.43999999999994 36.62Q327.17999999999995 39.14 327.68999999999994 42.44Q328.19999999999993 45.739999999999995 327.53999999999996 49.58L304.55999999999995 49.94V44.66L320.09999999999997 44.36L318.84 47.42Q319.19999999999993 44.66 318.74999999999994 42.769999999999996Q318.29999999999995 40.879999999999995 317.09999999999997 39.89Q315.9 38.9 313.79999999999995 38.9Q311.5799999999999 38.9 310.25999999999993 40.04Q308.93999999999994 41.18 308.4 43.25Q307.85999999999996 45.31999999999999 307.85999999999996 48.14Q307.85999999999996 53.0 309.47999999999996 55.22Q311.09999999999997 57.44 314.4599999999999 57.44Q315.9 57.44 316.85999999999996 57.08Q317.81999999999994 56.72 318.41999999999996 56.03Q319.0199999999999 55.339999999999996 319.25999999999993 54.349999999999994Q319.49999999999994 53.36 319.43999999999994 52.099999999999994L328.31999999999994 52.58Q328.49999999999994 54.559999999999995 327.92999999999995 56.66Q327.35999999999996 58.76 325.79999999999995 60.56Q324.23999999999995 62.36 321.44999999999993 63.5Q318.65999999999997 64.64 314.4 64.64ZM330.48 63.8V46.58V32.12H338.88V44.72H339.36Q339.71999999999997 39.68 340.77 36.769999999999996Q341.82 33.86 343.40999999999997 32.629999999999995Q345.0 31.4 346.98 31.4Q348.06 31.4 349.23 31.7Q350.4 32.0 351.53999999999996 32.66L351.06 43.459999999999994Q349.74 42.68 348.48 42.29Q347.21999999999997 41.9 346.08 41.9Q344.15999999999997 41.9 342.84 42.980000000000004Q341.52 44.06 340.83 46.16Q340.14 48.26 340.14 51.26V63.8ZM364.49999999999994 63.8V24.199999999999996H380.93999999999994Q383.58 24.199999999999996 385.94999999999993 24.65Q388.31999999999994 25.1 390.27 26.0Q392.21999999999997 26.9 393.65999999999997 28.279999999999998Q395.09999999999997 29.659999999999997 395.88 31.549999999999997Q396.65999999999997 33.44 396.65999999999997 35.84Q396.65999999999997 37.7 396.03 39.35Q395.4 41.0 394.04999999999995 42.32Q392.7 43.64 390.56999999999994 44.51Q388.43999999999994 45.379999999999995 385.49999999999994 45.739999999999995V46.22Q389.34 46.4 391.43999999999994 47.72Q393.53999999999996 49.04 394.59 51.05Q395.64 53.059999999999995 396.17999999999995 55.4L398.28 63.8H387.53999999999996L386.03999999999996 55.94Q385.67999999999995 53.9 384.92999999999995 52.64Q384.17999999999995 51.379999999999995 382.79999999999995 50.78Q381.41999999999996 50.18 379.14 50.18H374.21999999999997V63.8ZM374.21999999999997 42.68H379.85999999999996Q383.15999999999997 42.68 384.9 41.42Q386.64 40.16 386.64 37.58Q386.64 34.76 385.02 33.379999999999995Q383.4 32.0 380.09999999999997 32.0H374.21999999999997ZM413.4 64.64Q408.84 64.64 405.29999999999995 62.81Q401.75999999999993 60.98 399.78 57.28999999999999Q397.79999999999995 53.599999999999994 397.79999999999995 48.019999999999996Q397.79999999999995 42.2 399.86999999999995 38.51Q401.93999999999994 34.81999999999999 405.51 33.05Q409.08 31.28 413.58 31.28Q418.25999999999993 31.28 421.77 33.11Q425.28 34.94 427.22999999999996 38.629999999999995Q429.17999999999995 42.31999999999999 429.17999999999995 47.959999999999994Q429.17999999999995 53.78 427.10999999999996 57.47Q425.03999999999996 61.16 421.46999999999997 62.9Q417.9 64.64 413.4 64.64ZM413.64 57.5Q415.49999999999994 57.5 416.76 56.45Q418.02 55.4 418.67999999999995 53.36Q419.34 51.31999999999999 419.34 48.5Q419.34 45.379999999999995 418.62 43.25Q417.9 41.12 416.54999999999995 39.98Q415.19999999999993 38.839999999999996 413.28 38.839999999999996Q411.47999999999996 38.839999999999996 410.21999999999997 39.89Q408.96 40.94 408.29999999999995 42.98Q407.64 45.019999999999996 407.64 47.9Q407.64 52.459999999999994 409.22999999999996 54.98Q410.81999999999994 57.5 413.64 57.5ZM446.22 64.64Q441.66 64.64 438.12 62.81Q434.58 60.98 432.6 57.28999999999999Q430.62 53.599999999999994 430.62 48.019999999999996Q430.62 42.2 432.69 38.51Q434.76 34.81999999999999 438.33000000000004 33.05Q441.90000000000003 31.28 446.40000000000003 31.28Q451.08 31.28 454.59000000000003 33.11Q458.1 34.94 460.05 38.629999999999995Q462.0 42.31999999999999 462.0 47.959999999999994Q462.0 53.78 459.93 57.47Q457.86 61.16 454.29 62.9Q450.72 64.64 446.22 64.64ZM446.46000000000004 57.5Q448.32 57.5 449.58000000000004 56.45Q450.84000000000003 55.4 451.5 53.36Q452.16 51.31999999999999 452.16 48.5Q452.16 45.379999999999995 451.44000000000005 43.25Q450.72 41.12 449.37 39.98Q448.02 38.839999999999996 446.1 38.839999999999996Q444.3 38.839999999999996 443.04 39.89Q441.78000000000003 40.94 441.12 42.98Q440.46000000000004 45.019999999999996 440.46000000000004 47.9Q440.46000000000004 52.459999999999994 442.05 54.98Q443.64 57.5 446.46000000000004 57.5ZM464.28000000000003 63.8V46.22V32.12H472.5V45.019999999999996H472.98Q473.4 39.98 474.63 36.98Q475.86 33.98 477.93 32.629999999999995Q480.0 31.28 482.88 31.28Q485.88 31.28 487.74 32.75Q489.6 34.22 490.5 37.25Q491.4 40.28 491.34000000000003 45.019999999999996H491.82Q492.24 40.04 493.56 37.04Q494.88 34.04 497.03999999999996 32.66Q499.2 31.28 502.14 31.28Q504.6 31.28 506.4 32.18Q508.2 33.08 509.43 34.879999999999995Q510.66 36.68 511.26 39.41Q511.86 42.14 511.86 45.8V63.8H502.14V46.64Q502.14 44.36 501.75 42.83Q501.36 41.3 500.58000000000004 40.55Q499.8 39.8 498.6 39.8Q497.04 39.8 495.72 41.209999999999994Q494.4 42.62 493.59000000000003 45.44Q492.78000000000003 48.26 492.78000000000003 52.58V63.8H483.3V46.4Q483.3 44.12 482.90999999999997 42.67999999999999Q482.52 41.239999999999995 481.71 40.519999999999996Q480.9 39.8 479.7 39.8Q478.2 39.8 476.90999999999997 41.03Q475.62 42.26 474.81 45.08Q474.0 47.9 474.0 52.58V63.8Z"/></svg>
